HIERARCHY
ROOT Hips
{
	OFFSET 0.00000 0.00000 0.00000
	CHANNELS 6 Xposition Yposition Zposition Zrotation Yrotation Xrotation 
	JOINT LHipJoint
	{
		OFFSET 0 0 0
		CHANNELS 3 Zrotation Yrotation Xrotation
		JOINT LeftHip
		{
			OFFSET 1.84395 -1.68683 0.74144
			CHANNELS 3 Zrotation Yrotation Xrotation
			JOINT LeftKnee
			{
				OFFSET 2.27037 -6.23779 0.00000
				CHANNELS 3 Zrotation Yrotation Xrotation
				JOINT LeftAnkle
				{
					OFFSET 2.56918 -7.05877 0.00000
					CHANNELS 3 Zrotation Yrotation Xrotation
					JOINT LeftToe
					{
						OFFSET 0.22276 -0.61202 1.71784
						CHANNELS 3 Zrotation Yrotation Xrotation
						End Site
						{
							OFFSET 0.00000 -0.00000 0.91613
						}
					}
				}
			}
		}
	}
	JOINT RHipJoint
	{
		OFFSET 0 0 0
		CHANNELS 3 Zrotation Yrotation Xrotation
		JOINT RightHip
		{
			OFFSET -1.76833 -1.68684 0.74144
			CHANNELS 3 Zrotation Yrotation Xrotation
			JOINT RightKnee
			{
				OFFSET -2.49360 -6.85110 0.00000
				CHANNELS 3 Zrotation Yrotation Xrotation
				JOINT RightAnkle
				{
					OFFSET -2.55538 -7.02085 0.00000
					CHANNELS 3 Zrotation Yrotation Xrotation
					JOINT RightToe
					{
						OFFSET -0.21516 -0.59115 1.68050
						CHANNELS 3 Zrotation Yrotation Xrotation
						End Site
						{
							OFFSET -0.00000 -0.00000 0.89604
						}
					}
				}
			}
		}
	}
	JOINT lowerback
	{
		OFFSET 0 0 0
		CHANNELS 3 Zrotation Yrotation Xrotation
		JOINT Chest
		{
			OFFSET 0.06382 1.72312 -0.19613
			CHANNELS 3 Zrotation Yrotation Xrotation
			JOINT Chest2
			{
				OFFSET -0.00055 1.73507 0.23859
				CHANNELS 3 Zrotation Yrotation Xrotation
				JOINT lowerneck
				{
					OFFSET 0 0 0
					CHANNELS 3 Zrotation Yrotation Xrotation
					JOINT Neck
					{
						OFFSET 0.03638 1.65562 0.09633
						CHANNELS 3 Zrotation Yrotation Xrotation
						JOINT Head
						{
							OFFSET 0.06388 1.62807 -0.32386
							CHANNELS 3 Zrotation Yrotation Xrotation
							End Site
							{
								OFFSET 0.00995 1.67644 -0.12021
							}
						}
					}
				}
				JOINT LeftCollar
				{
					OFFSET 0 0 0
					CHANNELS 3 Zrotation Yrotation Xrotation
					JOINT LeftShoulder
					{
						OFFSET 3.09648 1.42991 0.28122
CHANNELS 3 Zrotation Xrotation Yrotation
						JOINT LeftElbow
						{
OFFSET 0 -5.118780 -0.000000
CHANNELS 3 Zrotation Xrotation Yrotation
							JOINT LeftWrist
							{
OFFSET 0 -3.599710 0.000000
CHANNELS 3 Zrotation Xrotation Yrotation
								JOINT lhand
								{
									OFFSET 0 0 0
CHANNELS 3 Zrotation Xrotation Yrotation
									JOINT LFingers
									{
OFFSET 0 -0.628770 0.000000
CHANNELS 3 Zrotation Xrotation Yrotation
										End Site
										{
OFFSET 0 -0.506930 0.000000
										}
									}
								}
								JOINT LThumb
								{
OFFSET 0 0.000000 0.000000
CHANNELS 3 Zrotation Xrotation Yrotation
									End Site
									{
OFFSET 0 -0.514670 0.514670
									}
								}
							}
						}
					}
				}
				JOINT RightCollar
				{
					OFFSET 0 0 0
					CHANNELS 3 Zrotation Yrotation Xrotation
					JOINT RightShoulder
					{
						OFFSET -3.33565 1.14597 0.05047
CHANNELS 3 Zrotation Xrotation Yrotation
						JOINT RightElbow
						{
OFFSET 0 -5.490200 0.000000
CHANNELS 3 Zrotation Xrotation Yrotation
							JOINT RightWrist
							{
OFFSET 0 -3.206590 -0.000000
CHANNELS 3 Zrotation Xrotation Yrotation
								JOINT rhand
								{
									OFFSET 0 0 0
CHANNELS 3 Zrotation Xrotation Yrotation
									JOINT RFingers
									{
OFFSET 0 -0.691880 0.000000
CHANNELS 3 Zrotation Xrotation Yrotation
										End Site
										{
OFFSET 0 -0.557810 0.000000
										}
									}
								}
								JOINT RThumb
								{
OFFSET 0 0.000000 0.000000
CHANNELS 3 Zrotation Xrotation Yrotation
									End Site
									{
OFFSET 0 -0.566330 0.566330
									}
								}
							}
						}
					}
				}
			}
		}
	}
}
MOTION
Frames: 5
Frame Time: 0.008333333333333333
0.955514 17.636629 8.654321 -8.534926 -0.800868 7.787043 0.000000 0.000000 0.000000 -12.683402 -29.609369 13.293685 0.001534 -0.253706 -0.696970 -3.309492 33.098694 -28.370050 0.002180 0.294443 0.808981 0.000000 0.000000 0.000000 26.038930 20.236898 -0.418280 -0.343541 -3.766394 10.420453 -0.334216 -11.433772 -20.313315 -0.003914 0.402423 -1.105793 7.051785 1.796346 -3.935001 1.140015 2.334788 -5.720453 -2.737189 0.922284 -3.507648 -4.903783 -5.556677 -11.181835 7.410708 -9.773192 35.138908 2.356799 -3.931108 14.635198 0.000000 0.000000 0.000000 -5.530844 -9.810604 -84.868270 154.479452 -36.731248 111.400623 30.833380 -38.352199 29.348218 0.000000 0.000000 0.000000 -7.125000 0.000000 0.000000 -0.019849 -3.238443 -0.021018 0.000000 0.000000 0.000000 8.272922 -8.530475 80.943571 -152.009418 -39.107468 -109.882203 -40.011693 56.223877 39.860814 0.000000 0.000000 0.000000 7.125000 0.000000 0.000000 -9.381362 77.302236 7.101063
0.948377 17.641263 8.623078 -8.796947 -0.613315 7.726684 0.000000 0.000000 0.000000 -12.028089 -29.312768 12.764394 0.000934 -0.198661 -0.545827 -3.306266 32.832098 -27.571609 0.000797 -0.141674 -0.389223 0.000000 0.000000 0.000000 26.348951 20.222514 -0.560366 -0.358949 -3.848774 10.651638 -0.348954 -11.385517 -20.413886 -0.001364 0.231367 -0.635676 7.152177 1.733093 -3.590584 1.296113 2.266880 -5.377338 -2.637930 0.900796 -3.350237 -5.210941 -5.690033 -11.565857 7.671959 -9.926843 34.675231 2.471300 -4.000544 14.559334 0.000000 0.000000 0.000000 -6.084837 -10.539118 -84.615849 154.945243 -36.259634 111.677670 30.362829 -39.272965 29.445196 0.000000 0.000000 0.000000 -7.125000 0.000000 0.000000 -0.307724 -3.214050 -0.325055 0.000000 0.000000 0.000000 8.529627 -8.816911 80.945530 -152.377678 -38.766201 -110.113678 -39.346396 55.502850 39.327945 0.000000 0.000000 0.000000 7.125000 0.000000 0.000000 -8.244195 76.514047 6.106363
0.939893 17.642664 8.583470 -9.006495 -0.461551 7.553749 0.000000 0.000000 0.000000 -11.415631 -28.804609 12.117736 0.000168 -0.065872 -0.181027 -3.187028 32.245541 -26.871561 0.004554 -0.428372 -1.177050 0.000000 0.000000 0.000000 26.616332 20.091245 -0.686622 -0.371370 -3.914099 10.835127 -0.334502 -11.454006 -20.339136 -0.004095 0.411282 -1.129961 7.542759 2.106629 -2.998015 0.909497 2.795257 -5.142543 -3.265197 1.148415 -3.353108 -5.045450 -6.167177 -11.234154 8.415240 -10.906322 34.181493 2.582579 -4.324627 14.398780 0.000000 0.000000 0.000000 -6.129571 -10.628407 -85.519905 155.395584 -35.796650 111.942491 30.221382 -40.694330 30.065733 0.000000 0.000000 0.000000 -7.125000 0.000000 0.000000 -0.507288 -3.838265 -0.540379 0.000000 0.000000 0.000000 9.338400 -8.911168 80.001422 -152.738841 -38.426289 -110.338697 -38.811408 54.882874 38.930780 0.000000 0.000000 0.000000 7.125000 0.000000 0.000000 -7.378625 75.912644 5.376932
0.932715 17.645256 8.535206 -9.076555 -0.314649 7.441715 0.000000 0.000000 0.000000 -10.778391 -28.040382 11.078035 0.000374 0.121734 0.334457 -2.993139 31.339896 -25.954779 0.013993 -0.759258 -2.086576 0.000000 0.000000 0.000000 26.650636 19.923961 -0.989798 -0.387079 -3.995224 11.063224 -0.338634 -11.374496 -20.293280 -0.005490 0.474045 -1.302605 7.481409 2.162746 -2.450105 0.926667 2.890280 -4.536430 -3.221122 1.224934 -3.017486 -4.479699 -6.344378 -11.481247 8.264263 -11.149027 33.332242 2.356442 -4.388556 14.038357 0.000000 0.000000 0.000000 -6.727345 -11.244988 -85.843406 155.824904 -35.348648 112.192304 29.949145 -40.673632 28.529053 0.000000 0.000000 0.000000 -7.125000 0.000000 0.000000 -0.375964 -2.123319 -0.389548 0.000000 0.000000 0.000000 9.784049 -9.245443 79.935650 -153.299153 -37.892426 -110.685183 -38.230848 54.521460 38.628390 0.000000 0.000000 0.000000 7.125000 0.000000 0.000000 -6.364738 75.394903 4.559095
0.923734 17.649085 8.483793 -9.202170 -0.263008 7.466110 0.000000 0.000000 0.000000 -9.919640 -27.089529 9.771200 0.002291 0.307028 0.843752 -2.813384 30.399156 -24.864027 0.035496 -1.215080 -3.340841 0.000000 0.000000 0.000000 26.716102 19.889768 -1.461514 -0.408313 -4.101863 11.363369 -0.331105 -11.326583 -20.159193 -0.012177 0.712365 -1.957678 7.360096 2.169948 -1.971019 1.089116 2.915736 -3.915728 -2.991375 1.271863 -2.647210 -4.869613 -6.501479 -12.326409 8.657880 -11.376835 33.137213 2.513355 -4.458572 14.222226 0.000000 0.000000 0.000000 -7.460844 -11.720493 -85.756631 156.182199 -34.970974 112.398110 29.580617 -40.102230 27.374691 0.000000 0.000000 0.000000 -7.125000 0.000000 0.000000 -0.386069 -0.788983 -0.391408 0.000000 0.000000 0.000000 9.890861 -9.727143 79.874512 -153.629769 -37.571962 -110.887534 -37.382956 53.633527 38.267968 0.000000 0.000000 0.000000 7.125000 0.000000 0.000000 -4.940439 74.724318 3.466525
